<svg class="hero-svg" xmlns="http://www.w3.org/2000/svg" width="367" height="230" viewBox="0 0 367 230">
    <g id="Group_8" data-name="Group 8" transform="translate(-172 -682)">
        <text id="Modern_Bible" data-name="Modern Bible" transform="translate(256 853)" fill="#888" font-size="35" font-family="SFProDisplay-Medium, SF Pro Display" font-weight="500"><tspan x="0" y="0">Modern </tspan><tspan y="0">Bible</tspan></text>
        <g id="Group_3" data-name="Group 3" transform="translate(-194.169 460.092)">
        <path id="Path_1" data-name="Path 1" d="M661.542,109.651H625.206a36.288,36.288,0,0,0,2.168-16.269,22.117,22.117,0,0,0-2.168-7.3c-5.354-10.561,0-20.614,0-20.614h36.336a23.09,23.09,0,0,0,0,20.614C667.061,96.887,661.542,109.651,661.542,109.651Z" transform="translate(-93.742 227.257)" fill="#f4f4f400" stroke="#656565" stroke-width="1"/>
        <path id="Path_4" data-name="Path 4" d="M625.206,109.651a36.288,36.288,0,0,0,2.168-16.269,22.117,22.117,0,0,0-2.168-7.3c-5.354-10.561,0-20.614,0-20.614" transform="translate(-61.584 227.257)" fill="#f4f4f4" stroke="#656565" stroke-width="1"/>
        <path id="Path_2" data-name="Path 2" d="M625.206,109.651a36.288,36.288,0,0,0,2.168-16.269,22.117,22.117,0,0,0-2.168-7.3c-5.354-10.561,0-20.614,0-20.614" transform="translate(-90.178 227.257)" fill="#f4f4f4" stroke="#656565" stroke-width="1"/>
        </g>
    </g>
</svg>  